<svg width="419" height="435" viewBox="0 0 419 435" fill="none" xmlns="http://www.w3.org/2000/svg">
<g clip-path="url(#clip0_81_85)">
<mask id="mask0_81_85" style="mask-type:luminance" maskUnits="userSpaceOnUse" x="1" y="349" width="82" height="80">
<path d="M1.68778 349.767H82.6984V428.444H1.68778V349.767Z" fill="white"/>
</mask>
<g mask="url(#mask0_81_85)">
<path d="M17.3194 363.183C18.0733 364.222 18.7135 365.252 19.5078 366.156C21.883 368.86 24.9637 370.199 28.599 370.33C29.5847 370.365 30.5815 370.302 31.5638 370.192C32.4594 370.094 32.9365 369.516 32.8633 368.811C32.7767 367.998 32.141 367.496 31.1812 367.64C29.7236 367.865 28.2342 367.804 26.801 367.461C22.6706 366.479 20.3596 363.744 19.0567 359.957C20.9413 355.686 24.1288 352.916 28.8634 352.151C33.6791 351.373 37.6441 353.025 40.7529 356.577V382.761C38.2618 383.36 35.8135 383.472 33.3719 382.683C31.1554 381.968 29.6285 380.526 28.7543 378.426C28.6418 378.156 28.5945 377.904 28.3718 377.645C28.0736 377.297 27.7113 377.1 27.3467 377.055C26.2666 376.918 25.6568 377.802 26.0427 378.948C26.4757 380.23 27.1849 381.408 28.1231 382.402C28.3211 382.617 28.5124 382.834 28.7903 383.146C28.4618 383.255 28.2232 383.342 27.9813 383.413C25.9234 384.009 24.2458 385.128 22.9857 386.825C22.3668 387.66 22.4141 388.431 23.0892 388.907C23.7463 389.371 24.6025 389.17 25.1651 388.368C26.3825 386.631 28.2345 386.001 30.217 385.622C31.6351 385.345 33.0958 385.345 34.5139 385.622C36.2354 385.955 37.9828 385.874 39.72 385.664C40.0373 385.625 40.3625 385.604 40.745 385.572V422.059C37.6947 425.573 33.7376 427.253 28.9197 426.484C23.9668 425.692 20.6881 422.795 18.8901 418.258C20.0895 415.396 22.1508 413.549 25.1943 412.806C26.8371 412.406 28.5135 412.293 30.2057 412.542C30.5883 412.598 30.9855 412.615 31.3759 412.595C32.0769 412.556 32.5461 412.076 32.5854 411.417C32.6293 410.744 32.2535 410.158 31.5706 410.066C27.1003 409.466 22.8372 409.793 19.3267 412.969C18.5222 413.699 17.8719 414.59 17.0921 415.474C15.2908 415.162 13.6154 414.408 12.1201 413.299C8.85719 410.883 7.20322 407.633 6.98269 403.681C6.94894 403.074 7.02207 402.457 6.98944 401.851C6.90618 400.3 6.24234 398.986 5.17345 397.846C3.40697 395.967 2.23794 393.809 1.84864 391.268C1.30632 387.733 2.1333 384.549 4.37572 381.712C4.68626 381.318 5.03618 380.955 5.3681 380.575C6.56076 379.226 7.10533 377.651 7.02995 375.891C6.8668 372.174 8.17085 369.018 10.8712 366.417C12.7592 364.596 15.2683 363.382 17.3194 363.187V363.183Z" fill="#3C6D34"/>
<path d="M56.9752 409.688C56.9752 408.491 56.9527 407.267 56.9786 406.048C57.0438 403.246 54.9713 400.244 51.6566 399.459C50.905 399.279 50.1152 399.213 49.3388 399.199C47.4756 399.164 45.6123 399.188 43.6658 399.188V394.263C43.9944 394.231 44.3409 394.263 44.6841 394.263C49.4682 394.256 54.2524 394.252 59.0365 394.266C59.7228 394.266 60.4373 394.284 61.0955 394.459C63.0015 394.968 64.1345 396.247 64.3472 398.134C64.4957 399.457 64.3764 400.809 64.3764 402.114C61.7661 403.962 61.0336 405.47 61.7368 407.486C62.3264 409.169 63.9838 410.319 65.7919 410.302C66.6856 410.289 67.5526 410.004 68.27 409.486C68.9875 408.968 69.5191 408.244 69.7895 407.417C70.4567 405.396 69.7164 403.895 67.0779 402.087C67.0779 400.908 67.0993 399.656 67.0734 398.404C67.0172 395.539 65.236 393.056 62.4558 392.11C61.5757 391.817 60.6522 391.665 59.7217 391.661C54.7868 391.619 49.8542 391.639 44.9193 391.639H43.6658V386.973C44.027 386.951 44.4062 386.994 44.782 386.994C49.8361 386.991 54.8914 387.029 59.9467 386.972C62.9104 386.941 65.1314 385.577 66.413 382.965C66.7989 382.172 66.9755 381.238 67.0487 380.352C67.1533 379.079 67.0734 377.789 67.0734 376.466C68.3988 375.828 69.533 375.004 69.7997 373.577C69.9515 372.75 69.9369 371.81 69.6871 371.01C69.1639 369.323 67.3525 368.237 65.5646 368.328C64.6715 368.372 63.8154 368.688 63.1169 369.23C62.4184 369.772 61.9129 370.514 61.6716 371.35C61.0798 373.339 61.8786 374.879 64.471 376.547C64.4057 377.954 64.471 379.482 64.2392 380.965C63.9511 382.838 62.2927 384.167 60.3405 384.28C58.9904 384.36 57.6357 384.364 56.2821 384.367C52.4622 384.378 48.6379 384.375 44.818 384.367C44.4354 384.367 44.0923 384.4 43.6658 384.367V379.43C44.0056 379.408 44.2835 379.441 44.6008 379.441C46.3167 379.433 48.0314 379.462 49.7461 379.43C53.2926 379.37 56.0908 377.203 56.8346 373.917C56.9752 373.301 56.9606 372.641 56.9752 372.003C56.9966 370.982 56.982 369.963 56.982 368.899C58.3254 368.251 59.4629 367.391 59.7296 365.933C59.8747 365.13 59.8376 364.218 59.5923 363.443C59.041 361.711 57.2925 360.687 55.3786 360.775C53.5806 360.856 52.0358 362.1 51.5441 363.856C50.9996 365.813 51.8085 367.339 54.3649 368.97C54.303 370.38 54.3716 371.909 54.1331 373.392C53.8124 375.373 52.0246 376.716 49.9734 376.733C47.902 376.751 45.825 376.736 43.6658 376.736V356.657C45.789 353.379 51.0783 351.264 55.6172 352.158C61.6108 353.34 64.8996 357.155 66.1643 362.906C66.6335 363.004 67.1567 363.099 67.6765 363.228C72.9163 364.519 76.6923 368.73 77.274 373.965C77.364 374.772 77.3066 375.593 77.3393 376.406C77.4068 378.142 78.0819 379.621 79.2959 380.902C81.0072 382.705 82.1121 384.812 82.5161 387.252C83.1056 390.814 82.2607 394.03 80.0182 396.902C79.7482 397.249 79.4478 397.579 79.144 397.905C77.9176 399.224 77.2628 400.77 77.3753 402.545C77.7578 408.726 73.3562 414.671 66.1575 415.733C64.9469 421.575 61.5354 425.481 55.2999 426.491C50.5844 427.256 46.706 425.534 43.6197 422.048V401.886C43.9685 401.864 44.2869 401.886 44.6053 401.886C46.3201 401.881 48.0348 401.878 49.7506 401.886C52.1618 401.897 53.9812 403.368 54.2456 405.7C54.393 407.023 54.2704 408.376 54.2704 409.68C51.6668 411.494 50.9377 413.002 51.6308 415.056C52.2158 416.788 53.9317 417.917 55.8737 417.843C57.6717 417.777 59.2536 416.536 59.7442 414.804C60.3113 412.809 59.4697 411.188 56.9752 409.683V409.688Z" fill="#103654"/>
</g>
</g>
<g clip-path="url(#clip1_81_85)">
<path d="M194.099 246.769C193.584 246.769 193.228 246.769 192.868 246.769C190.758 246.769 188.645 246.773 186.536 246.769C180.306 246.754 175.126 242.503 174.065 236.526C173.958 235.93 173.899 235.319 173.899 234.715C173.891 220.652 173.899 206.588 173.891 192.524C173.891 186.697 178.446 181.662 184.07 180.716C185.099 180.543 186.164 180.547 187.212 180.493C187.766 180.466 188.324 180.489 188.831 180.489C189.132 179.717 189.199 176.288 188.958 174.977C186.836 174.143 185.238 172.694 184.434 170.523C183.86 168.97 183.84 167.398 184.371 165.818C185.42 162.67 188.546 160.56 191.934 160.737C195.27 160.906 198.195 163.274 198.884 166.468C199.532 169.477 198.472 173.121 194.063 175.024V180.408H224.323C224.581 179.72 224.644 176.288 224.418 174.989C222.297 174.14 220.694 172.698 219.887 170.523C219.325 169.004 219.281 167.467 219.788 165.91C220.825 162.709 223.951 160.568 227.378 160.733C230.695 160.894 233.663 163.339 234.348 166.456C235.068 169.75 233.533 173.355 229.512 175.02V180.424C230.066 180.447 230.581 180.497 231.095 180.482C233.192 180.416 235.25 180.62 237.166 181.515C241.274 183.445 243.807 186.551 244.496 190.986C244.594 191.617 244.654 192.258 244.654 192.896C244.662 206.703 244.662 220.513 244.658 234.32C244.658 240.292 240.637 245.189 234.637 246.488C233.778 246.677 232.876 246.754 231.993 246.757C227.541 246.784 223.089 246.784 218.636 246.757C217.876 246.754 217.247 246.946 216.61 247.338C210.531 251.047 204.436 254.737 198.345 258.434C197.605 258.884 196.861 259.261 195.935 258.965C194.72 258.577 194.103 257.735 194.099 256.32C194.087 253.534 194.099 250.747 194.099 247.96C194.099 247.614 194.099 247.265 194.099 246.777V246.769Z" fill="#0896AF"/>
<path d="M168.613 224.599C166.072 224.771 163.67 224.66 161.608 223.08C159.704 221.624 158.707 219.698 158.675 217.361C158.632 214.032 158.643 210.704 158.667 207.371C158.695 203.416 162.035 200.184 166.104 200.137C166.86 200.13 167.619 200.149 168.375 200.161C168.435 200.161 168.49 200.207 168.609 200.261V224.599H168.613Z" fill="#0896AF"/>
<path d="M249.92 224.634V200.28C254.712 199.469 258.449 201.641 259.557 205.569C259.659 205.931 259.691 206.323 259.695 206.703C259.707 210.32 259.675 213.937 259.711 217.554C259.739 220.387 258.286 222.316 255.904 223.715C254.895 224.307 253.763 224.538 252.611 224.622C251.76 224.684 250.905 224.634 249.924 224.634H249.92Z" fill="#0896AF"/>
<path d="M231.299 207.898C231.876 206.248 232.073 204.491 231.876 202.747C231.679 201.016 231.116 199.34 230.186 197.824C227.383 193.155 221.762 190.754 216.254 191.881C214.733 190.258 212.789 189.05 210.62 188.38C208.45 187.709 206.14 187.588 203.914 188.031C201.689 188.487 199.618 189.48 197.927 190.942C196.237 192.404 194.969 194.255 194.265 196.334C192.476 196.683 190.8 197.394 189.321 198.427C187.841 199.447 186.616 200.761 185.714 202.277C182.883 206.932 183.531 212.821 187.306 216.819C186.729 218.469 186.531 220.227 186.714 221.957C186.898 223.688 187.475 225.364 188.391 226.88C191.194 231.549 196.829 233.95 202.323 232.823C203.534 234.125 205.013 235.171 206.675 235.882C208.338 236.593 210.141 236.955 211.958 236.942C217.592 236.942 222.579 233.467 224.312 228.329C226.101 227.98 227.777 227.27 229.256 226.237C230.735 225.217 231.961 223.902 232.863 222.386C235.666 217.731 235.018 211.883 231.256 207.898H231.299ZM212 233.735C209.746 233.735 207.577 232.984 205.844 231.602L206.154 231.442L216.381 225.794C216.635 225.646 216.846 225.445 217.001 225.204C217.142 224.962 217.226 224.681 217.226 224.399V210.595L221.551 212.983C221.551 212.983 221.593 213.009 221.607 213.023C221.621 213.036 221.635 213.063 221.635 213.09V224.533C221.635 229.617 217.325 233.735 212.014 233.735H212ZM191.335 225.284C190.208 223.419 189.799 221.233 190.194 219.113L190.504 219.288L200.731 224.935C200.984 225.083 201.266 225.15 201.562 225.15C201.858 225.15 202.139 225.069 202.393 224.935L214.888 218.04V222.816C214.888 222.816 214.888 222.869 214.874 222.883C214.874 222.91 214.846 222.923 214.817 222.936L204.464 228.651C199.857 231.187 193.983 229.684 191.321 225.284H191.335ZM188.644 203.954C189.785 202.076 191.574 200.641 193.701 199.916V211.547C193.701 211.829 193.772 212.111 193.913 212.352C194.054 212.594 194.265 212.795 194.533 212.942L206.971 219.811L202.647 222.199C202.647 222.199 202.59 222.212 202.576 222.212C202.562 222.212 202.52 222.212 202.506 222.199L192.166 216.484C187.574 213.935 185.996 208.314 188.644 203.901V203.954ZM224.157 211.856L211.676 204.92L215.987 202.532C215.987 202.532 216.043 202.519 216.057 202.519C216.071 202.519 216.113 202.519 216.127 202.532L226.467 208.247C228.045 209.119 229.341 210.407 230.186 211.95C231.031 213.492 231.397 215.25 231.242 216.98C231.088 218.724 230.425 220.388 229.327 221.783C228.228 223.178 226.735 224.238 225.016 224.855V213.224C225.016 212.942 224.917 212.674 224.777 212.433C224.622 212.191 224.41 211.99 224.157 211.856ZM228.453 205.658L228.143 205.483L217.931 199.782C217.677 199.635 217.381 199.568 217.085 199.568C216.79 199.568 216.494 199.648 216.24 199.782L203.745 206.678V201.902C203.745 201.902 203.745 201.848 203.745 201.835C203.745 201.808 203.774 201.794 203.788 201.781L214.127 196.066C215.705 195.194 217.522 194.765 219.353 194.846C221.185 194.926 222.945 195.489 224.439 196.496C225.932 197.502 227.115 198.883 227.819 200.507C228.524 202.117 228.735 203.901 228.425 205.618V205.658H228.453ZM201.407 214.136L197.082 211.748C197.082 211.748 197.04 211.721 197.026 211.695C197.026 211.681 196.998 211.655 196.998 211.628V200.211C196.998 198.468 197.519 196.75 198.505 195.275C199.491 193.799 200.886 192.619 202.548 191.881C204.21 191.143 206.042 190.861 207.858 191.089C209.676 191.317 211.38 192.028 212.789 193.142L212.479 193.303L202.252 198.95C201.999 199.098 201.787 199.299 201.632 199.541C201.492 199.782 201.407 200.064 201.407 200.346V214.123V214.136ZM203.759 209.293L209.324 206.221L214.902 209.293V215.437L209.352 218.509L203.774 215.437V209.293H203.759Z" fill="white"/>
</g>
<g clip-path="url(#clip2_81_85)">
<path d="M218.26 383.693L186.817 368.821L218.26 413.205M218.26 383.693L249.702 398.565L218.26 413.205M218.26 383.693L186.817 427.845L218.26 413.205M218.26 383.693L186.817 398.565L218.26 413.205" stroke="#103654" stroke-width="3"/>
<path d="M248.305 404.73C252.164 404.73 255.292 401.773 255.292 398.125C255.292 394.477 252.164 391.52 248.305 391.52C244.446 391.52 241.318 394.477 241.318 398.125C241.318 401.773 244.446 404.73 248.305 404.73Z" fill="#3C6D34"/>
<path d="M185.886 433.792C189.745 433.792 192.873 430.835 192.873 427.187C192.873 423.539 189.745 420.582 185.886 420.582C182.027 420.582 178.899 423.539 178.899 427.187C178.899 430.835 182.027 433.792 185.886 433.792Z" fill="#3C6D34"/>
<path d="M185.886 375.668C189.745 375.668 192.873 372.711 192.873 369.063C192.873 365.415 189.745 362.458 185.886 362.458C182.027 362.458 178.899 365.415 178.899 369.063C178.899 372.711 182.027 375.668 185.886 375.668Z" fill="#3C6D34"/>
<path d="M185.886 404.73C189.745 404.73 192.873 401.773 192.873 398.125C192.873 394.477 189.745 391.52 185.886 391.52C182.027 391.52 178.899 394.477 178.899 398.125C178.899 401.773 182.027 404.73 185.886 404.73Z" fill="#3C6D34"/>
<path d="M217.561 419.701C221.42 419.701 224.548 416.744 224.548 413.096C224.548 409.448 221.42 406.491 217.561 406.491C213.702 406.491 210.574 409.448 210.574 413.096C210.574 416.744 213.702 419.701 217.561 419.701Z" fill="#3C6D34"/>
<path d="M224.548 383.154C224.548 386.801 221.42 389.759 217.561 389.759C213.702 389.759 210.574 386.801 210.574 383.154C210.574 379.506 213.702 376.549 217.561 376.549C221.42 376.549 224.548 379.506 224.548 383.154Z" fill="#3C6D34"/>
</g>
<g clip-path="url(#clip3_81_85)">
<mask id="mask1_81_85" style="mask-type:luminance" maskUnits="userSpaceOnUse" x="342" y="349" width="77" height="76">
<path d="M418.555 349.767H342.045V424.073H418.555V349.767Z" fill="white"/>
</mask>
<g mask="url(#mask1_81_85)">
<path d="M399.273 365.583H372.6C370.795 365.583 367.564 367.191 366.175 368.34C359.72 373.684 360.924 383.704 368.389 387.523C369.151 387.912 371.527 388.803 372.301 388.803H397.032L395.508 391.749C392.444 398.576 391.046 406.129 390.747 413.539C390.642 416.14 391.075 419.455 390.717 421.928C390.543 423.124 389.518 423.983 388.29 424.07H362.732C361.59 423.962 360.577 423.071 360.428 421.954C360.03 418.984 360.754 415.249 360.425 412.233C360.323 411.29 359.382 410.279 358.399 410.137C355.888 409.777 352.176 410.706 349.857 409.725C345.649 407.943 347.487 402.03 347.126 398.446C347.045 397.65 346.812 397.293 346.074 397C344.26 396.278 341.107 396.237 342.311 393.343C343.447 390.615 345.533 387.767 346.701 384.981C347.792 382.374 346.914 380.337 346.663 377.707C344.839 358.53 365.541 345.549 383.547 351.029C390.738 353.218 396.736 358.681 399.27 365.583H399.273Z" fill="#3C6D34"/>
<path d="M399.422 384.45C394.096 384.409 388.759 384.482 383.433 384.45L384.808 382.23C385.16 381.301 385.627 380.381 385.674 379.371H400.767C400.575 381.046 400.04 382.871 399.422 384.45C400.71 384.459 403.459 384.198 404.428 384.886C404.738 385.106 405.399 385.925 405.399 386.264V392.432H408.238C408.265 392.432 408.298 392.125 408.411 391.95C411.053 387.875 417.204 388.546 418.36 393.268C419.597 398.319 413.348 401.811 409.43 398.313C408.854 397.796 408.6 397.218 408.145 396.658L402.515 396.612C402.084 396.447 401.642 396.208 401.364 395.843C401.259 395.706 400.919 395.062 400.919 394.969V388.801H397.183C397.963 387.373 398.83 385.96 399.425 384.447L399.422 384.45Z" fill="#103654"/>
<path d="M400.617 369.937C400.336 368.431 399.933 367.026 399.422 365.583H400.916V359.851C400.916 359.81 401.098 359.134 401.134 359.047C401.415 358.327 402.15 357.819 402.93 357.744C404.583 357.584 406.466 357.883 408.145 357.729C408.51 357.363 408.698 356.858 409.057 356.437C411.758 353.279 417.266 354.484 418.33 358.466C419.822 364.048 412.458 367.418 408.985 363.189C408.815 362.983 408.238 361.955 408.163 361.955H405.399V368.268C405.399 368.411 404.885 369.226 404.732 369.363C403.803 370.178 401.819 369.926 400.617 369.937C400.892 371.4 400.985 372.605 401.062 374.076C401.071 374.268 401.382 375.017 400.991 375.017H385.674C385.587 373.609 384.834 372.378 384.207 371.145L383.433 369.937C389.156 369.888 394.894 370.001 400.617 369.937Z" fill="#103654"/>
<path d="M368.682 382.374C364.593 378.403 366.622 371.443 372.217 370.146C378.361 368.721 383.454 374.993 380.621 380.485C378.394 384.798 372.214 385.808 368.682 382.374ZM373.377 375.045C372.955 375.132 372.247 375.687 372.008 376.038C370.714 377.933 373.194 380.357 375.209 379.002C377.339 377.568 375.806 374.546 373.377 375.045Z" fill="#103654"/>
<path d="M408.239 375.016C408.271 374.99 408.424 374.444 408.561 374.241C411.027 370.529 416.825 371.188 418.256 375.373C420.169 380.964 412.47 385.169 408.469 379.649C408.388 379.536 408.403 379.37 408.388 379.37H400.917L401.219 377.124V375.016H408.239Z" fill="#103654"/>
</g>
</g>
<g clip-path="url(#clip4_81_85)">
<path d="M75.3849 9.92661H3.37544C1.51124 9.92661 0 11.3943 0 13.2048V59.0996C0 60.9101 1.51124 62.3778 3.37544 62.3778H75.3849C77.2491 62.3778 78.7604 60.9101 78.7604 59.0996V13.2048C78.7604 11.3943 77.2491 9.92661 75.3849 9.92661Z" fill="#3C6D34"/>
<path d="M37.1299 39.4305V53.636H58.5077M37.1299 47.9538L43.3182 45.1127L48.3813 47.9538L54.5697 42.2716L57.1012 45.1127M37.1299 17.5758V25.4435M37.1299 25.4435V30.6886H70.8843M37.1299 25.4435L42.7556 23.3454L48.9439 25.4435L54.0071 18.1003L59.6328 25.4435L65.2586 20.7229L70.8843 25.4435" stroke="white" stroke-width="2" stroke-linejoin="round"/>
<path d="M31.5041 53.6358H24.7533M22.503 53.6358H6.75088M6.75088 48.1721H13.5018" stroke="white" stroke-width="2"/>
<path d="M19.6901 43.8011C27.4576 43.8011 33.7544 37.6857 33.7544 30.142C33.7544 22.5982 27.4576 16.4828 19.6901 16.4828C11.9226 16.4828 5.62574 22.5982 5.62574 30.142C5.62574 37.6857 11.9226 43.8011 19.6901 43.8011Z" fill="#92C9EC"/>
<path d="M16.8772 48.1721H31.5041" stroke="#283B48" stroke-width="2"/>
<path d="M29.635 39.8008C27.6682 41.7111 25.1621 43.012 22.4339 43.5391C19.7057 44.0661 16.8778 43.7956 14.3079 42.7618C11.738 41.728 9.54142 39.9772 7.99601 37.731C6.45059 35.4847 5.62574 32.8439 5.62574 30.1424H19.6901L29.635 39.8008Z" fill="white"/>
<path d="M19.6901 42.7087C26.8362 42.7087 32.6293 37.0825 32.6293 30.1422C32.6293 23.202 26.8362 17.5758 19.6901 17.5758C12.544 17.5758 6.75088 23.202 6.75088 30.1422C6.75088 37.0825 12.544 42.7087 19.6901 42.7087Z" stroke="#283B48" stroke-width="2"/>
<path d="M6.75088 29.5956H18.8101L28.1287 39.4302" stroke="#283B48" stroke-width="2"/>
<path d="M66.3016 57.1626C71.4159 57.1626 75.5618 53.1361 75.5618 48.1692C75.5618 43.2023 71.4159 39.1758 66.3016 39.1758C61.1874 39.1758 57.0415 43.2023 57.0415 48.1692C57.0415 53.1361 61.1874 57.1626 66.3016 57.1626Z" fill="white" stroke="#283B48" stroke-width="2"/>
<path d="M71.7676 55.0703L83.7927 66.749" stroke="#283B48" stroke-width="2"/>
</g>
<g clip-path="url(#clip5_81_85)">
<mask id="mask2_81_85" style="mask-type:luminance" maskUnits="userSpaceOnUse" x="173" y="0" width="77" height="75">
<path d="M173.273 0H249.783V74.3059H173.273V0Z" fill="white"/>
</mask>
<g mask="url(#mask2_81_85)">
<path d="M210.591 56.8296V74.3059H206.113V56.8151H201.635V69.959H197.132V56.7976H185.918V48.0873H174.563V43.7146H185.834V39.3656H170.085V34.9929H185.849V30.644H174.561V26.2702H185.867V17.5599H197.081V4.34999H201.584V17.4763H206.062V0H210.564V17.4908H215.042V4.3469H219.544V17.5083H230.758V26.2186H242.114V30.5913H230.839V34.9403H246.589V39.313H230.825V43.6619H242.115V48.0346H230.808V56.745H219.593V69.9539H215.091V56.8234H210.585L210.591 56.8285V56.8296ZM210.552 28.4746H197.161V45.822H201.627V41.5628H206.123V45.8395H210.548V28.4736H210.551L210.552 28.4746ZM215.126 28.4633V45.8168H219.53V28.4633H215.126Z" fill="#3C6D34"/>
<path d="M204.837 32.8297H209.223V37.1033H204.837V32.8297Z" fill="#92C9EC"/>
</g>
</g>
<g clip-path="url(#clip6_81_85)">
<path fill-rule="evenodd" clip-rule="evenodd" d="M409.929 11.951C409.929 17.8965 395.656 22.7171 378.05 22.7171C360.442 22.7171 346.171 17.8975 346.171 11.951C346.172 6.00548 360.443 1.18488 378.049 1.18488C395.656 1.18488 409.929 6.00444 409.929 11.951Z" fill="#3C6D34"/>
<path fill-rule="evenodd" clip-rule="evenodd" d="M378.05 28.3088C361.002 28.3088 347.121 23.7864 346.254 18.102H346.171V28.4584C346.171 34.406 360.443 39.2245 378.05 39.2245C395.656 39.2245 409.929 34.405 409.929 28.4584V18.102H409.845C408.979 23.7864 395.098 28.3088 378.05 28.3088Z" fill="#3C6D34"/>
<path fill-rule="evenodd" clip-rule="evenodd" d="M378.05 44.9357C361.002 44.9357 347.121 40.4134 346.254 34.729H346.171V45.0853C346.171 51.0329 360.443 55.8515 378.05 55.8515C395.656 55.8515 409.929 51.0329 409.929 45.0853V34.729H409.845C408.979 40.4134 395.098 44.9357 378.05 44.9357Z" fill="#3C6D34"/>
<path fill-rule="evenodd" clip-rule="evenodd" d="M378.05 60.4471C361.002 60.4471 347.121 55.9238 346.254 50.2404H346.171V60.5968C346.171 66.5433 360.443 71.3629 378.05 71.3629C395.656 71.3629 409.929 66.5433 409.929 60.5968V55.3654C409.766 56.4356 409.398 54.8494 408.04 53.3014C403.644 57.4656 391.891 60.4471 378.05 60.4471Z" fill="#3C6D34"/>
<path d="M397.708 66.1262C402.653 66.1262 406.662 62.2329 406.662 57.4303C406.662 52.6277 402.653 48.7345 397.708 48.7345C392.763 48.7345 388.755 52.6277 388.755 57.4303C388.755 62.2329 392.763 66.1262 397.708 66.1262Z" fill="white"/>
<path d="M414.743 65.6897L416.238 61.6957C416.378 61.2881 416.297 60.8453 415.993 60.5398L412.455 56.7843L415.632 52.746C415.762 52.5816 415.843 52.3862 415.868 52.1805C415.892 51.9748 415.859 51.7665 415.771 51.5777L413.915 47.721C413.823 47.5317 413.68 47.3703 413.501 47.2542C413.321 47.1382 413.113 47.0719 412.898 47.0626L407.666 46.8469L406.978 41.8106C406.951 41.6043 406.865 41.4094 406.731 41.2473C406.597 41.0851 406.42 40.9622 406.218 40.8921L402.096 39.4401C401.895 39.369 401.678 39.3526 401.468 39.3926C401.259 39.4326 401.064 39.5275 400.906 39.6671L397.052 43.1151L392.882 40.019C392.713 39.8918 392.512 39.8127 392.299 39.7905C392.087 39.7682 391.873 39.8038 391.68 39.8931L387.709 41.6971C387.516 41.7836 387.351 41.9207 387.234 42.093C387.116 42.2652 387.05 42.4658 387.044 42.6724L386.821 47.7664L381.624 48.4352C381.193 48.492 380.831 48.7758 380.679 49.1731L379.184 53.1774C379.111 53.3706 379.093 53.58 379.135 53.7822C379.176 53.9845 379.274 54.1716 379.418 54.3229L382.967 58.0785L379.78 62.1168C379.652 62.2822 379.572 62.4781 379.55 62.6838C379.527 62.8895 379.563 63.0973 379.652 63.285L381.508 67.1417C381.694 67.5277 382.08 67.7764 382.524 67.8001L387.756 68.0148L388.444 73.0635C388.503 73.4825 388.795 73.8344 389.204 73.982L393.326 75.4227C393.527 75.4926 393.744 75.5084 393.954 75.4684C394.164 75.4285 394.358 75.3342 394.517 75.1956L398.372 71.7477L402.54 74.8437C402.709 74.9713 402.911 75.0505 403.123 75.0726C403.336 75.0947 403.551 75.0586 403.743 74.9686L407.713 73.1657C408.099 72.9954 408.368 72.6094 408.379 72.1894L408.6 67.1077L413.797 66.4265C414.229 66.3811 414.592 66.0859 414.743 65.6897ZM400.823 63.897C399.85 64.338 398.79 64.5667 397.717 64.5668C396.321 64.564 394.954 64.1765 393.776 63.4495C392.598 62.7224 391.656 61.6855 391.061 60.4593C390.65 59.6113 390.416 58.6928 390.372 57.7566C390.328 56.8204 390.474 55.885 390.803 55.004C391.132 54.1229 391.636 53.3134 392.287 52.6221C392.939 51.9308 393.724 51.3714 394.599 50.976C395.569 50.5262 396.63 50.2935 397.705 50.2949C399.102 50.3 400.469 50.6896 401.647 51.4186C402.825 52.1477 403.767 53.1862 404.362 54.4137C406.079 57.9753 404.49 62.2282 400.823 63.897Z" fill="#103654"/>
</g>
<defs>
<clipPath id="clip0_81_85">
<rect width="82.0805" height="78.6239" fill="white" transform="translate(1.12515 349.767) scale(1.00067)"/>
</clipPath>
<clipPath id="clip1_81_85">
<rect width="101.195" height="98.2798" fill="white" transform="translate(158.646 160.724) scale(1.00067)"/>
</clipPath>
<clipPath id="clip2_81_85">
<rect width="76.4585" height="74.2559" fill="white" transform="translate(178.899 360.694) scale(1.00067)"/>
</clipPath>
<clipPath id="clip3_81_85">
<rect width="76.4585" height="74.2559" fill="white" transform="translate(342.045 349.767) scale(1.00067)"/>
</clipPath>
<clipPath id="clip4_81_85">
<rect width="85.4537" height="57.8759" fill="white" transform="translate(0 9.92661) scale(1.00067)"/>
</clipPath>
<clipPath id="clip5_81_85">
<rect width="76.4585" height="74.2559" fill="white" transform="translate(173.273) scale(1.00067)"/>
</clipPath>
<clipPath id="clip6_81_85">
<rect width="76.4585" height="74.2559" fill="white" transform="translate(339.795 1.18488) scale(1.00067)"/>
</clipPath>
</defs>
</svg>
