<svg width="41" height="41" viewBox="0 0 41 41" fill="none" xmlns="http://www.w3.org/2000/svg">
<path d="M13.6667 15.375H27.3333M13.6667 22.2084H23.9167M20.5 35.875L15.375 30.75H10.25C8.89077 30.75 7.5872 30.2101 6.62608 29.249C5.66495 28.2878 5.125 26.9843 5.125 25.625V11.9584C5.125 10.5991 5.66495 9.29558 6.62608 8.33445C7.5872 7.37333 8.89077 6.83337 10.25 6.83337H30.75C32.1092 6.83337 33.4128 7.37333 34.3739 8.33445C35.335 9.29558 35.875 10.5991 35.875 11.9584V22.2084M34.1667 35.875L37.5833 32.4584L34.1667 29.0417M29.0417 29.0417L25.625 32.4584L29.0417 35.875" stroke="#0896AF" stroke-width="4" stroke-linecap="round" stroke-linejoin="round"/>
</svg>
