<svg width="1440" height="88" viewBox="0 0 1440 88" fill="none" xmlns="http://www.w3.org/2000/svg">
<g clip-path="url(#clip0_75_652)" filter="url(#filter0_d_75_652)">
<rect width="1440" height="88" fill="#10111A"/>
<g clip-path="url(#clip1_75_652)">
<path fill-rule="evenodd" clip-rule="evenodd" d="M74.0197 49.4308C74.0197 49.7441 73.9678 50.1097 73.9158 50.3708C73.4482 51.7285 72.2013 52.6162 70.7466 52.6162C69.4477 52.6162 68.4606 51.8851 68.4606 50.3185C68.4606 47.9165 71.0583 47.2898 74.0717 47.2898V49.4308H74.0197ZM78.6956 45.2533C78.6956 41.3368 77.0331 37.8381 71.37 37.8381C68.4606 37.8381 66.1226 38.6736 64.8757 39.4047L65.8109 42.5901C67.2656 41.7546 68.8762 41.2846 70.5388 41.2324C73.4482 41.2324 73.9158 42.8512 73.9158 43.8956V44.1567C67.6293 44.1567 63.6808 46.3499 63.6808 50.7885C63.6808 53.5039 65.707 56.0627 69.2399 56.0627C71.37 56.0627 73.1884 55.2272 74.2795 53.8172H74.3834C74.3834 53.8172 75.1107 56.846 79.0593 55.6971C78.8515 54.4439 78.7475 53.0862 78.7475 51.5196V45.2533H78.6956ZM-17.316 32.4595L-12.5362 52.094C-11.7569 55.2794 -10.4061 56.4804 -6.45758 55.6971L-3.91182 45.2533C-3.28837 42.6423 -2.82078 40.8146 -2.40514 38.1514H-2.35319C-2.04146 40.8146 -1.62583 42.6423 -1.10628 45.2533L0.452347 52.5118C1.02385 55.0183 2.47857 56.5849 6.37514 55.6971L12.4538 32.5118H7.51814L5.43996 42.5379C4.86847 45.4621 4.34892 47.7598 3.98524 50.423C3.62156 47.7598 3.15397 45.5666 2.58247 42.7467L0.452347 32.5118H-4.69113L-7.02908 42.4856C-7.65253 45.5144 -8.27598 47.9687 -8.69162 50.5274H-8.74357C-9.15921 48.1253 -9.67875 45.0444 -10.2502 42.1201L-12.1206 32.4595H-17.316ZM21.4939 49.4308C21.4939 49.7441 21.4939 50.1097 21.3899 50.3708C20.9224 51.7285 19.6755 52.6162 18.2207 52.6162C16.9219 52.6162 15.9347 51.8851 15.9347 50.3185C15.9347 47.9165 18.5325 47.2898 21.5458 47.2898V49.4308H21.4939ZM26.2217 45.2533C26.2217 41.3368 24.5592 37.8381 18.8961 37.8381C15.9867 37.8381 13.6488 38.6736 12.4018 39.4047L13.337 42.5901C14.7917 41.7546 16.4023 41.2846 18.0649 41.2324C20.9743 41.2324 21.4419 42.8512 21.4419 43.8956V44.1567C15.1554 44.1567 11.2069 46.3499 11.2069 50.7885C11.2069 53.5039 13.2331 56.0627 16.766 56.0627C18.8961 56.0627 20.7145 55.2272 21.8056 53.8172H21.9095C21.9095 53.8172 22.6369 56.846 26.5854 55.6971C26.3776 54.4439 26.2737 53.0862 26.2737 51.5196V45.2533H26.2217ZM33.4434 50.7363V32.4595H28.7675V55.6449H33.4434V50.7363ZM93.0869 32.5118V49.5875C93.0869 51.9373 93.5026 53.6084 94.4897 54.6005C95.321 55.4883 96.6718 56.0627 98.2824 56.0627C99.6852 56.0627 101.036 55.8016 101.659 55.5405L101.607 51.8329C101.14 51.9896 100.568 52.0418 99.841 52.0418C98.2304 52.0418 97.7109 51.0496 97.7109 48.9086V42.4334H101.815V37.9948H97.7109V32.4595L93.0869 32.5118ZM80.9816 38.2559V55.6971H85.8133V46.7676C85.8133 46.2977 85.8653 45.8799 85.9172 45.4621C86.2809 43.5822 87.6837 42.3812 89.7619 42.3812C90.3334 42.3812 90.6971 42.4334 91.1646 42.4856V37.8903C90.801 37.8381 90.4373 37.7859 90.1255 37.7859C88.3072 37.7859 86.2809 38.9347 85.3977 41.4935H85.2938V38.2037L80.9816 38.2559ZM36.1969 38.2559V55.6971H40.8728V45.4621C40.8728 44.9922 40.9248 44.47 41.0806 44.0522C41.4443 43.0078 42.4315 41.8068 43.9381 41.8068C45.8604 41.8068 46.7437 43.4256 46.7437 45.7232V55.6449H51.4715V45.3055C51.4715 44.8355 51.5235 44.2611 51.6793 43.8956C52.043 42.6423 53.238 41.7546 54.5368 41.7546C56.4591 41.7546 57.3943 43.3212 57.3943 46.0888V55.6449H62.1222V45.4099C62.1222 40.0313 59.3686 37.8381 56.3033 37.8381C54.9005 37.8381 53.8614 38.2037 52.8743 38.7781C52.043 39.3003 51.3157 40.0313 50.6922 40.9713H50.6402C49.8609 39.0392 47.9386 37.7859 45.8604 37.8381C43.7823 37.7337 41.808 38.7781 40.8209 40.6057H40.7689V38.2559H36.1969Z" fill="white" fill-opacity="0.5"/>
<path fill-rule="evenodd" clip-rule="evenodd" d="M127.118 37.4726C128.053 37.4726 128.832 36.9504 128.936 36.376L129.819 25.8799C129.819 24.8355 128.624 24 127.118 24C125.611 24 124.416 24.8355 124.416 25.8799L125.351 36.376C125.403 37.0026 126.183 37.4726 127.118 37.4726ZM121.455 40.7624C121.922 39.9269 121.87 39.0392 121.403 38.6214L112.83 32.6162C111.947 32.094 110.596 32.7206 109.869 34.0261C109.09 35.3316 109.245 36.846 110.129 37.3159L119.636 41.7546C120.208 41.9634 121.039 41.5457 121.455 40.7624ZM132.729 40.7102C133.196 41.5457 133.976 41.9634 134.599 41.7024L144.055 37.2637C144.938 36.7415 145.094 35.2794 144.315 33.9739C143.535 32.6684 142.236 32.0418 141.353 32.564L132.781 38.6214C132.313 39.0392 132.261 39.9269 132.729 40.7102ZM127.118 50.5274C128.053 50.5274 128.832 51.0496 128.936 51.624L129.819 62.1201C129.819 63.1645 128.624 64 127.118 64C125.611 64 124.416 63.1645 124.416 62.1201L125.351 51.624C125.403 50.9974 126.183 50.5274 127.118 50.5274ZM132.729 47.2898C133.196 46.4543 133.976 46.0366 134.599 46.2454L144.055 50.6841C144.938 51.2063 145.094 52.6684 144.315 53.9739C143.535 55.2794 142.236 55.906 141.353 55.3838L132.781 49.3786C132.313 49.0131 132.261 48.0731 132.729 47.2898ZM121.455 47.2898C121.922 48.0731 121.87 49.0131 121.403 49.4308L112.83 55.436C111.947 55.9582 110.596 55.3316 109.869 54.0261C109.09 52.7206 109.245 51.2585 110.129 50.7363L119.636 46.2976C120.208 46.0366 121.039 46.4543 121.455 47.2898ZM146.081 54.4961H146.185C146.289 54.4961 146.393 54.4439 146.393 54.3916C146.393 54.2872 146.341 54.2872 146.237 54.2872H146.133V54.4961H146.081ZM146.081 54.9661H145.873V54.1305H146.185C146.341 54.1305 146.393 54.1305 146.497 54.1828C146.549 54.235 146.601 54.2872 146.601 54.3394C146.601 54.4439 146.549 54.4961 146.445 54.5483C146.549 54.6005 146.601 54.6527 146.601 54.7572C146.601 54.9138 146.653 54.9138 146.653 54.9661H146.445C146.393 54.9138 146.393 54.8616 146.393 54.7572C146.393 54.6527 146.341 54.6527 146.237 54.6527H146.133L146.081 54.9661ZM146.185 53.8695C145.821 53.8695 145.561 54.1828 145.561 54.5483C145.561 54.9138 145.821 55.2272 146.185 55.2272C146.549 55.2272 146.808 54.9138 146.808 54.5483C146.86 54.1828 146.549 53.8695 146.185 53.8695ZM146.185 53.7128C146.653 53.7128 147.016 54.0783 147.016 54.5483C147.016 55.0183 146.653 55.3838 146.185 55.3838C145.717 55.3838 145.302 55.0183 145.302 54.5483C145.354 54.0783 145.717 53.7128 146.185 53.7128Z" fill="white" fill-opacity="0.5"/>
</g>
<g clip-path="url(#clip2_75_652)">
<path fill-rule="evenodd" clip-rule="evenodd" d="M293.024 53.0251C286.846 57.5735 277.891 60.0001 270.182 60.0001C259.371 60.0001 249.639 56.0065 242.277 49.3643C241.698 48.842 242.216 48.1302 242.911 48.5369C250.856 53.1546 260.681 55.9325 270.83 55.9325C277.674 55.9325 285.203 54.5181 292.126 51.583C293.172 51.1393 294.047 52.2671 293.024 53.0251Z" fill="white" fill-opacity="0.5"/>
<path fill-rule="evenodd" clip-rule="evenodd" d="M295.592 50.09C294.806 49.0824 290.372 49.6139 288.382 49.8497C287.776 49.9236 287.684 49.3967 288.23 49.0177C291.761 46.5355 297.554 47.2519 298.23 48.084C298.906 48.9206 298.054 54.7215 294.736 57.4903C294.227 57.9155 293.741 57.689 293.968 57.1251C294.713 55.267 296.384 51.1023 295.592 50.09Z" fill="white" fill-opacity="0.5"/>
<path fill-rule="evenodd" clip-rule="evenodd" d="M288.52 31.4946V29.0818C288.52 28.7167 288.797 28.4717 289.131 28.4717H299.945C300.293 28.4717 300.57 28.7213 300.57 29.0818V31.148C300.566 31.4946 300.274 31.9476 299.756 32.6641L294.152 40.656C296.234 40.6051 298.432 40.9148 300.32 41.978C300.746 42.2183 300.862 42.5696 300.894 42.9163V45.4909C300.894 45.8422 300.505 46.2536 300.098 46.0409C296.771 44.2983 292.351 44.1088 288.672 46.0594C288.298 46.2628 287.904 45.856 287.904 45.5047V43.0596C287.904 42.6667 287.909 41.9964 288.302 41.4002L294.795 32.1002H289.144C288.797 32.1002 288.52 31.8552 288.52 31.4946Z" fill="white" fill-opacity="0.5"/>
<path fill-rule="evenodd" clip-rule="evenodd" d="M249.069 46.549H245.779C245.464 46.5259 245.214 46.2902 245.191 45.9897V29.1231C245.191 28.7856 245.474 28.5175 245.825 28.5175H248.893C249.213 28.5314 249.467 28.7764 249.49 29.0815V31.2863H249.551C250.351 29.1554 251.855 28.1616 253.882 28.1616C255.941 28.1616 257.228 29.1554 258.153 31.2863C258.949 29.1554 260.759 28.1616 262.698 28.1616C264.077 28.1616 265.586 28.7302 266.507 30.0059C267.548 31.4249 267.335 33.4865 267.335 35.2938L267.33 45.9389C267.33 46.2763 267.048 46.549 266.696 46.549H263.411C263.082 46.5259 262.818 46.2624 262.818 45.9389V36.9994C262.818 36.2876 262.883 34.5126 262.726 33.8378C262.48 32.7053 261.745 32.3864 260.791 32.3864C259.995 32.3864 259.162 32.9179 258.825 33.7684C258.487 34.6189 258.519 36.0426 258.519 36.9994V45.9389C258.519 46.2763 258.237 46.549 257.885 46.549H254.599C254.266 46.5259 254.007 46.2624 254.007 45.9389L254.002 36.9994C254.002 35.1181 254.312 32.3494 251.976 32.3494C249.611 32.3494 249.703 35.0488 249.703 36.9994V45.9389C249.703 46.2763 249.421 46.549 249.069 46.549Z" fill="white" fill-opacity="0.5"/>
<path fill-rule="evenodd" clip-rule="evenodd" d="M309.881 28.1617C314.763 28.1617 317.405 32.3495 317.405 37.6744C317.405 42.819 314.485 46.9004 309.881 46.9004C305.086 46.9004 302.476 42.7126 302.476 37.4941C302.476 32.2432 305.119 28.1617 309.881 28.1617ZM309.909 31.6053C307.484 31.6053 307.331 34.9056 307.331 36.9625C307.331 39.0241 307.299 43.4245 309.881 43.4245C312.431 43.4245 312.551 39.8746 312.551 37.7114C312.551 36.2877 312.491 34.5867 312.06 33.237C311.69 32.0629 310.954 31.6053 309.909 31.6053Z" fill="white" fill-opacity="0.5"/>
<path fill-rule="evenodd" clip-rule="evenodd" d="M323.737 46.549H320.46C320.132 46.5259 319.868 46.2624 319.868 45.9389L319.863 29.0676C319.891 28.7579 320.164 28.5175 320.497 28.5175H323.547C323.834 28.5314 324.07 28.7255 324.135 28.989V31.5682H324.195C325.116 29.2617 326.407 28.1616 328.679 28.1616C330.155 28.1616 331.594 28.6932 332.52 30.1492C333.381 31.4989 333.381 33.7684 333.381 35.4001V46.0175C333.344 46.3133 333.071 46.549 332.747 46.549H329.447C329.146 46.5259 328.896 46.304 328.864 46.0175V36.8561C328.864 35.0118 329.077 32.3124 326.805 32.3124C326.004 32.3124 325.268 32.8486 324.903 33.6621C324.44 34.6929 324.38 35.719 324.38 36.8561V45.9389C324.375 46.2763 324.088 46.549 323.737 46.549Z" fill="white" fill-opacity="0.5"/>
<path fill-rule="evenodd" clip-rule="evenodd" d="M279.898 38.4926C279.898 39.7729 279.93 40.8407 279.283 41.9777C278.76 42.9022 277.927 43.4707 277.006 43.4707C275.742 43.4707 275.002 42.5093 275.002 41.0903C275.002 38.2892 277.515 37.7807 279.898 37.7807V38.4926ZM283.216 46.5029C282.999 46.6971 282.684 46.7109 282.439 46.5815C281.347 45.6756 281.148 45.2549 280.551 44.3906C278.746 46.2302 277.464 46.7803 275.127 46.7803C272.355 46.7803 270.203 45.0747 270.203 41.6588C270.203 38.9918 271.647 37.1752 273.711 36.2877C275.497 35.5019 277.991 35.3633 279.898 35.146V34.7208C279.898 33.9396 279.958 33.0152 279.495 32.3403C279.097 31.7348 278.329 31.4852 277.649 31.4852C276.395 31.4852 275.28 32.1277 275.007 33.4589C274.951 33.7547 274.734 34.0459 274.433 34.0598L271.244 33.7177C270.976 33.6577 270.675 33.4404 270.754 33.029C271.485 29.1648 274.983 28 278.112 28C279.713 28 281.805 28.4252 283.068 29.6363C284.669 31.1293 284.516 33.1215 284.516 35.2893V40.4108C284.516 41.95 285.155 42.6249 285.757 43.4569C285.965 43.7527 286.011 44.1086 285.743 44.3305C285.072 44.8898 283.878 45.9298 283.221 46.5122L283.216 46.5029Z" fill="white" fill-opacity="0.5"/>
<path fill-rule="evenodd" clip-rule="evenodd" d="M236.763 38.4926C236.763 39.7729 236.796 40.8407 236.148 41.9777C235.625 42.9022 234.797 43.4707 233.871 43.4707C232.608 43.4707 231.872 42.5093 231.872 41.0903C231.872 38.2892 234.385 37.7807 236.763 37.7807V38.4926ZM240.081 46.5029C239.864 46.6971 239.549 46.7109 239.304 46.5815C238.212 45.6756 238.017 45.2549 237.416 44.3906C235.611 46.2302 234.334 46.7803 231.992 46.7803C229.225 46.7803 227.068 45.0747 227.068 41.6588C227.068 38.9918 228.517 37.1752 230.576 36.2877C232.362 35.5019 234.857 35.3633 236.763 35.146V34.7208C236.763 33.9396 236.823 33.0152 236.365 32.3403C235.963 31.7348 235.194 31.4852 234.519 31.4852C233.265 31.4852 232.145 32.1277 231.872 33.4589C231.816 33.7547 231.599 34.0459 231.303 34.0598L228.109 33.7177C227.841 33.6577 227.545 33.4404 227.619 33.029C228.355 29.1648 231.849 28 234.977 28C236.578 28 238.67 28.4252 239.933 29.6363C241.534 31.1293 241.382 33.1215 241.382 35.2893V40.4108C241.382 41.95 242.02 42.6249 242.622 43.4569C242.835 43.7527 242.881 44.1086 242.613 44.3305C241.942 44.8898 240.748 45.9298 240.091 46.5122L240.081 46.5029Z" fill="white" fill-opacity="0.5"/>
</g>
<g clip-path="url(#clip3_75_652)">
<path d="M451.828 52.8081V28.9956H465.841V31.9914H454.734V39.308H464.713V42.3037H454.734V49.7739H466.625V52.7697H451.828V52.8081Z" fill="white" fill-opacity="0.5"/>
<path d="M481.344 52.808L476.527 46.4708L471.709 52.808H468.306L474.883 44.3392L467.943 35.6016H471.767L476.508 42.15L481.325 35.6016H485.072L478.496 44.3392L484.728 52.808H481.344Z" fill="white" fill-opacity="0.5"/>
<path d="M489.411 50.254V61.9875H486.506V44.4161C486.506 39.9417 489.908 35.1792 495.204 35.1792C500.576 35.1792 504.629 38.5974 504.629 44.2049C504.629 49.6779 500.519 53.4419 495.854 53.4419C493.598 53.4419 490.539 52.4625 489.411 50.254ZM501.589 44.2049C501.589 40.3642 499.104 38.0982 494.726 38.3094C492.604 38.3862 489.354 39.9417 489.622 45.4147C489.698 47.2007 491.533 50.5421 495.567 50.5421C499.047 50.5421 501.589 48.5449 501.589 44.2049Z" fill="white" fill-opacity="0.5"/>
<path d="M507.115 52.8081V35.6017H510.021V37.4452C511.436 35.8129 513.634 35.2368 515.966 35.2368V38.367C515.603 38.2902 512.143 37.8677 510.021 42.419V52.8657H507.115V52.8081Z" fill="white" fill-opacity="0.5"/>
<path d="M516.75 44.2048C516.75 39.2311 520.286 35.1791 525.18 35.1791C531.26 35.1791 533.535 39.2311 533.535 44.4161V45.8372H519.942C520.153 49.1018 523.058 50.8109 525.754 50.7533C527.742 50.6765 529.08 50.1196 530.495 48.6985L532.407 50.6957C530.629 52.4048 528.373 53.5378 525.62 53.5378C520.42 53.4418 516.75 49.6011 516.75 44.2048ZM524.951 38.0981C522.198 38.0981 520.057 40.5177 519.923 43.1486H530.476C530.476 40.5754 528.641 38.0981 524.951 38.0981Z" fill="white" fill-opacity="0.5"/>
<path d="M535.008 50.3888L537.13 48.4684C537.053 48.4684 538.2 49.6014 538.334 49.6782C538.831 50.1007 539.328 50.3888 539.959 50.5232C541.794 51.0225 545.121 50.8881 545.407 48.3148C545.541 46.8937 544.49 46.1064 543.285 45.6071C541.737 45.0309 540.035 44.8197 538.468 44.1092C536.69 43.3218 535.562 41.9776 535.562 39.9804C535.562 34.7954 542.922 33.9312 546.249 36.3509C546.382 36.4853 548.026 37.9832 547.95 37.9832L545.828 39.6923C544.757 38.4057 543.782 37.772 541.507 37.772C540.38 37.772 538.812 38.2713 538.525 39.4811C538.105 41.1902 540.016 41.8239 541.278 42.1888C542.979 42.6113 544.815 42.8993 546.306 43.8211C548.351 45.1078 548.848 47.8731 548.084 50.0047C547.243 52.3475 544.681 53.2693 542.425 53.3461C539.749 53.5189 537.416 52.674 535.505 50.7536C535.352 50.7536 535.008 50.3888 535.008 50.3888Z" fill="white" fill-opacity="0.5"/>
<path d="M549.939 50.3886L552.061 48.4683C551.985 48.4683 553.132 49.6013 553.266 49.6781C553.763 50.1006 554.26 50.3886 554.89 50.5231C556.726 51.0224 560.052 50.8879 560.339 48.3146C560.473 46.8936 559.421 46.1062 558.217 45.6069C556.668 45.0308 554.967 44.8196 553.399 44.109C551.621 43.3217 550.493 41.9774 550.493 39.9803C550.493 34.7953 557.854 33.9311 561.18 36.3508C561.314 36.4852 562.958 37.9831 562.881 37.9831L560.759 39.6922C559.689 38.4056 558.714 37.7719 556.439 37.7719C555.311 37.7719 553.743 38.2711 553.457 39.481C553.036 41.1901 554.948 41.8238 556.21 42.1887C557.911 42.6112 559.746 42.8992 561.237 43.821C563.283 45.1076 563.78 47.873 563.015 50.0046C562.174 52.3474 559.612 53.2692 557.357 53.346C554.661 53.4804 552.329 52.6355 550.417 50.7151C550.302 50.7535 549.939 50.3886 549.939 50.3886Z" fill="white" fill-opacity="0.5"/>
<path d="M432.137 52.8073L430.015 47.123H418.544L416.422 52.8073H413.383L422.578 28.9756H425.904L435.042 52.8073H432.137ZM424.146 32.3938L419.825 44.2041H428.81L424.146 32.3938Z" fill="white" fill-opacity="0.5"/>
<path d="M436.953 52.8076V28.9951H439.935V52.8268H436.953V52.8076Z" fill="white" fill-opacity="0.5"/>
<path d="M444.39 52.8076V35.9468H447.373V52.8076H444.39Z" fill="white" fill-opacity="0.5"/>
<path d="M450.203 30.4738C450.203 30.397 450.203 30.397 450.203 30.3394C450.203 30.2626 450.203 30.2626 450.203 30.2049C447.947 30.1281 446.093 28.2846 446.035 26.0186C445.959 26.0186 445.901 26.0186 445.825 26.0186C445.748 26.0186 445.691 26.0186 445.615 26.0186C445.538 28.2846 443.703 30.1473 441.447 30.2049C441.447 30.2818 441.447 30.2818 441.447 30.3394C441.447 30.4162 441.447 30.4162 441.447 30.4738C443.703 30.5506 445.557 32.3942 445.615 34.6602C445.691 34.6602 445.748 34.6602 445.825 34.6602C445.901 34.6602 445.959 34.6602 446.035 34.6602C446.093 32.3942 447.928 30.5506 450.203 30.4738Z" fill="white" fill-opacity="0.5"/>
</g>
<g clip-path="url(#clip4_75_652)">
<path d="M653.746 34.9966C648.107 34.9966 643.408 37.3824 643.408 44.5804C643.408 50.2828 646.568 53.8738 653.891 53.8738C662.512 53.8738 663.064 48.2106 663.064 48.2106H658.887C658.887 48.2106 657.992 51.26 653.636 51.26C650.089 51.26 647.538 48.8703 647.538 45.5207H663.501V43.4187C663.501 40.1049 661.392 34.9966 653.746 34.9966ZM653.6 37.683C656.977 37.683 659.279 39.7459 659.279 42.8379H647.63C647.63 39.5554 650.635 37.683 653.6 37.683Z" fill="white" fill-opacity="0.5"/>
<path d="M663.498 28.0264V50.2589C663.498 51.5208 663.408 53.2928 663.408 53.2928H667.392C667.392 53.2928 667.535 52.0202 667.535 50.8571C667.535 50.8571 669.503 53.9281 674.855 53.9281C680.491 53.9281 684.319 50.0258 684.319 44.435C684.319 39.234 680.803 35.0509 674.864 35.0509C669.303 35.0509 667.575 38.0458 667.575 38.0458V28.0264H663.498ZM673.836 37.8008C677.663 37.8008 680.097 40.6336 680.097 44.435C680.097 48.5114 677.286 51.1782 673.863 51.1782C669.779 51.1782 667.575 47.9974 667.575 44.4713C667.575 41.1857 669.552 37.8008 673.836 37.8008Z" fill="white" fill-opacity="0.5"/>
<path d="M694.22 34.9965C685.737 34.9965 685.193 39.629 685.193 40.3692H689.415C689.415 40.3692 689.637 37.6647 693.929 37.6647C696.718 37.6647 698.88 38.9379 698.88 41.3857V42.2569H693.929C687.357 42.2569 683.883 44.1743 683.883 48.0653C683.883 51.8946 687.093 53.9781 691.431 53.9781C697.344 53.9781 699.248 50.7199 699.248 50.7199C699.248 52.0158 699.348 53.2929 699.348 53.2929H703.102C703.102 53.2929 702.956 51.7099 702.956 50.6972V41.9438C702.956 36.2043 698.314 34.9965 694.22 34.9965ZM698.88 44.8707V46.0324C698.88 47.5475 697.942 51.3144 692.423 51.3144C689.401 51.3144 688.105 49.8101 688.105 48.0653C688.105 44.8911 692.469 44.8707 698.88 44.8707Z" fill="white" fill-opacity="0.5"/>
<path d="M700.683 35.7236H705.434L712.251 49.3448L719.053 35.7236H723.356L710.966 59.9736H706.453L710.028 53.2136L700.683 35.7236Z" fill="white" fill-opacity="0.5"/>
</g>
<g clip-path="url(#clip5_75_652)">
<path d="M834.897 37.6469C832.231 39.294 830.585 42.1175 830.585 45.2548C830.585 48.7842 832.702 51.9999 835.916 53.3332C835.289 55.3724 834.348 57.2548 833.172 58.9803C831.447 61.4116 829.644 63.9214 826.979 63.9214C824.313 63.9214 823.529 62.3528 820.394 62.3528C817.336 62.3528 816.239 63.9999 813.73 63.9999C811.222 63.9999 809.497 61.7254 807.537 58.9018C804.95 54.9803 803.461 50.4313 803.382 45.6469C803.382 37.8822 808.4 33.7254 813.417 33.7254C816.082 33.7254 818.277 35.4509 819.923 35.4509C821.491 35.4509 824 33.6469 826.979 33.6469C830.115 33.5685 833.093 35.0587 834.897 37.6469ZM825.568 30.3528C826.9 28.7842 827.606 26.8234 827.684 24.7842C827.684 24.5489 827.684 24.2352 827.606 23.9999C825.333 24.2352 823.216 25.3332 821.726 27.0587C820.394 28.5489 819.61 30.4313 819.531 32.4705C819.531 32.7058 819.531 32.9411 819.61 33.1763C819.767 33.1763 820.002 33.2548 820.159 33.2548C822.275 33.0979 824.235 31.9999 825.568 30.3528Z" fill="white" fill-opacity="0.5"/>
</g>
<g clip-path="url(#clip6_75_652)">
<path d="M922.854 37.5875C922.72 37.0504 922.754 36.5132 922.821 36.211C922.988 35.3717 923.558 34.4652 925.2 34.4652C926.742 34.4652 927.614 35.4053 927.614 36.8489C927.614 37.3189 927.614 38.4604 927.614 38.4604H934.116V36.6139C934.15 30.9065 929.021 30 925.334 30C920.709 30 916.921 31.5444 916.217 35.8082C916.016 36.9832 915.983 38.024 916.284 39.3333C917.424 44.6715 926.709 46.2158 928.049 49.6067C928.318 50.2446 928.217 51.0504 928.116 51.554C927.915 52.4269 927.312 53.3333 925.569 53.3333C923.927 53.3333 922.955 52.3933 922.955 50.9496V48.4317H915.916V50.446C915.916 56.2878 920.508 58.0336 925.402 58.0336C930.128 58.0336 933.982 56.4221 934.619 52.0576C934.921 49.8082 934.686 48.3309 934.586 47.7938C933.513 42.2542 923.592 40.6427 922.854 37.5875ZM1007.76 37.6211C1007.66 37.1175 1007.69 36.5468 1007.72 36.2782C1007.92 35.4388 1008.46 34.5324 1010.1 34.5324C1011.61 34.5324 1012.48 35.4724 1012.48 36.8825C1012.48 37.3525 1012.48 38.494 1012.48 38.494H1018.92V36.6811C1018.92 31.0408 1013.89 30.1679 1010.24 30.1679C1005.64 30.1679 1001.89 31.6787 1001.19 35.9089C1001.02 37.0504 1000.95 38.0911 1001.25 39.4005C1002.36 44.6715 1011.54 46.2158 1012.88 49.5731C1013.12 50.211 1013.05 51.0168 1012.92 51.4868C1012.72 52.3597 1012.15 53.2326 1010.4 53.2326C1008.8 53.2326 1007.79 52.2926 1007.79 50.8825V48.3645H1000.85V50.3453C1000.85 56.1199 1005.38 57.8657 1010.24 57.8657C1014.9 57.8657 1018.75 56.2542 1019.35 51.9568C1019.66 49.7074 1019.42 48.2638 1019.32 47.7266C1018.28 42.2878 1008.49 40.6763 1007.76 37.6211ZM1067.02 51.8897L1060.88 30.8393H1051.2V56.7242H1057.6L1057.23 35.0024L1063.83 56.7242H1073.12V30.8393H1066.68L1067.02 51.8897ZM943.87 30.8393L939.01 56.9928H946.049L949.702 32.7866L953.255 56.9928H960.261L955.468 30.8393H943.87ZM983.288 30.8393L980.003 51.2854L976.718 30.8393H966.059L965.49 56.9928H972.026L972.193 32.7866L976.685 56.9928H983.288L987.779 32.7866L987.947 56.9928H994.483L993.913 30.8393H983.288ZM1043.96 30.8393H1037.35V50.1775C1037.35 50.5132 1037.35 50.8825 1037.29 51.1847C1037.15 51.8225 1036.62 53.0983 1034.77 53.0983C1032.96 53.0983 1032.43 51.8561 1032.29 51.1847C1032.22 50.9161 1032.22 50.5132 1032.22 50.1775V30.8393H1025.62V49.5731C1025.62 50.0432 1025.66 51.0504 1025.69 51.2854C1026.16 56.1535 1029.98 57.765 1034.77 57.765C1039.57 57.765 1043.42 56.1871 1043.89 51.2854C1043.92 51.0168 1043.99 50.0432 1043.96 49.5731V30.8393ZM1089.27 42.2878V46.1151H1091.95V49.9089C1091.95 50.2446 1091.95 50.6139 1091.89 50.9161C1091.79 51.6211 1091.12 52.8297 1089.21 52.8297C1087.33 52.8297 1086.66 51.6211 1086.56 50.9161C1086.52 50.6139 1086.49 50.2446 1086.49 49.9089V37.9568C1086.49 37.5204 1086.52 37.0839 1086.63 36.7146C1086.76 36.0767 1087.33 34.8345 1089.21 34.8345C1091.22 34.8345 1091.69 36.1439 1091.82 36.7146C1091.89 37.0839 1091.89 37.7218 1091.89 37.7218V39.1655H1098.46V38.2926C1098.46 38.2926 1098.49 37.3861 1098.42 36.5468C1097.92 31.6787 1093.87 30.1343 1089.24 30.1343C1084.61 30.1343 1080.66 31.7122 1080.09 36.5803C1080.02 37.0168 1079.96 37.8225 1079.96 38.3261V49.3046C1079.96 49.7746 1079.96 50.1439 1080.06 51.0168C1080.49 55.7842 1084.61 57.4628 1089.24 57.4628C1093.9 57.4628 1097.99 55.7842 1098.42 51.0168C1098.49 50.1439 1098.52 49.7746 1098.52 49.3046V42.2878H1089.27Z" fill="white" fill-opacity="0.5"/>
</g>
<g clip-path="url(#clip7_75_652)">
<path fill-rule="evenodd" clip-rule="evenodd" d="M1292.81 24L1209.24 59.5294C1202.28 62.5098 1196.42 64 1191.73 64C1186.42 64 1182.59 62.1176 1180.16 58.3529C1177.11 53.4902 1178.44 45.7255 1183.68 37.4902C1186.81 32.7059 1190.79 28.3137 1194.7 24.0784C1193.76 25.5686 1185.71 39.0588 1194.55 45.4118C1196.27 46.6667 1198.77 47.2941 1201.82 47.2941C1204.24 47.2941 1207.05 46.902 1210.18 46.1176L1292.81 24Z" fill="white" fill-opacity="0.5"/>
</g>
<g clip-path="url(#clip8_75_652)">
<path d="M1381.89 27.102V38.449C1381.89 38.449 1385.9 38.449 1388.02 38.2857C1389.74 37.9592 1389.99 37.7959 1390.31 36.1633L1390.97 33.7143H1392.77L1392.44 39.0204L1392.61 44.5714H1390.81L1390.31 42.449C1389.82 40.898 1389.25 40.5714 1388.02 40.4898C1386.47 40.3265 1381.89 40.3265 1381.89 40.3265V49.8776C1381.89 51.6735 1382.79 52.4898 1385 52.4898H1391.46C1393.42 52.4898 1395.47 52.3265 1396.7 49.3878L1398.33 45.7143H1399.89C1399.72 46.449 1398.99 53.2245 1398.82 54.7755C1398.82 54.7755 1393.01 54.6122 1390.56 54.6122H1379.43H1372.81V52.9796L1374.94 52.4898C1376.49 52.1633 1376.98 51.7551 1376.98 50.5306C1376.98 50.5306 1377.14 46.3673 1377.14 39.5102C1377.14 32.6531 1376.98 28.4898 1376.98 28.4898C1376.98 27.102 1376.49 26.7755 1374.94 26.5306L1372.81 25.9592V24.3265L1379.27 24.4898H1391.54C1394 24.4082 1398.17 24 1398.17 24C1398.17 24 1398 26.6122 1397.84 32.7347H1396.12L1395.47 30.6122C1394.9 27.8367 1394 26.449 1392.28 26.449H1382.62C1381.89 26.449 1381.89 26.6122 1381.89 27.102ZM1406.76 28.2449H1408.64V34.6939L1414.94 34.3673L1414.61 37.3061L1408.48 36.8163V48.1633C1408.48 51.3469 1409.54 52.6531 1411.42 52.6531C1413.06 52.6531 1414.37 51.7551 1414.78 50.9388L1415.68 52C1414.78 54.1224 1412.16 55.1837 1409.7 55.1837C1406.68 55.1837 1404.14 53.3878 1404.14 49.7959V36.9796H1400.46V35.4286C1403.57 35.1837 1405.86 33.3061 1406.76 28.2449ZM1420.01 48.0816L1421.24 51.0204C1421.73 52.2449 1422.79 53.4694 1425.25 53.4694C1427.86 53.4694 1428.93 52.0816 1428.93 50.3673C1428.93 45.1429 1418.62 46.6939 1418.62 39.5918C1418.62 35.5918 1421.81 33.7143 1425.98 33.7143C1427.86 33.7143 1430.56 34.0408 1431.95 34.6122C1431.63 36.1633 1431.46 38.1224 1431.46 39.6735L1429.91 39.8367L1428.85 36.7347C1428.52 36 1427.29 35.3469 1425.74 35.3469C1423.86 35.3469 1422.06 36.0816 1422.06 38.1224C1422.06 42.8571 1432.69 41.7959 1432.69 48.898C1432.69 52.898 1429.17 55.0204 1424.84 55.0204C1421.65 55.0204 1418.37 53.7959 1418.37 53.7959C1418.7 52 1418.54 49.9592 1418.37 48C1418.46 48.0816 1420.01 48.0816 1420.01 48.0816ZM1431.95 62.7755C1432.45 61.0612 1432.69 58.9388 1433.02 56.9796L1434.74 56.8163L1435.39 60C1435.55 60.7347 1435.96 61.3878 1437.19 61.3878C1439.15 61.3878 1441.77 60.1633 1444.31 55.8367C1443.24 53.2245 1439.97 44.8163 1437.03 38.3673C1436.29 36.6531 1436.13 36.4898 1435.06 36.2449L1434.25 35.9184V34.3673L1438.91 34.5306L1444.55 34.2041V35.7551L1443.16 36.0816C1442.1 36.2449 1441.61 36.8163 1441.61 37.4694C1441.61 37.6327 1441.61 37.7959 1441.77 38.1224C1442.1 39.0204 1444.55 45.9592 1446.35 50.5306C1447.91 47.3469 1450.77 40.0816 1451.26 38.8571C1451.43 38.2041 1451.59 38.1224 1451.59 37.6327C1451.59 36.8163 1451.1 36.4082 1450.03 36.0816L1448.97 35.7551V34.2041L1453.31 34.3673L1457.32 34.2041V35.7551L1456.58 36.3265C1455.02 36.9796 1454.86 37.0612 1454.29 38.3673L1447.5 54.2041C1443.49 63.2653 1439.32 64 1436.45 64C1434.57 64 1433.18 63.5102 1431.95 62.7755Z" fill="white" fill-opacity="0.5"/>
</g>
<g filter="url(#filter1_f_75_652)">
<rect x="-12" y="-0.00976562" width="60" height="80" fill="#10111A"/>
</g>
<g filter="url(#filter2_f_75_652)">
<rect x="1392" y="-0.00976562" width="60" height="80" fill="#10111A"/>
</g>
</g>
<defs>
<filter id="filter0_d_75_652" x="-60" y="-48" width="1560" height="208" filterUnits="userSpaceOnUse" color-interpolation-filters="sRGB">
<feFlood flood-opacity="0" result="BackgroundImageFix"/>
<feColorMatrix in="SourceAlpha" type="matrix" values="0 0 0 0 0 0 0 0 0 0 0 0 0 0 0 0 0 0 127 0" result="hardAlpha"/>
<feOffset dy="12"/>
<feGaussianBlur stdDeviation="30"/>
<feComposite in2="hardAlpha" operator="out"/>
<feColorMatrix type="matrix" values="0 0 0 0 0 0 0 0 0 0 0 0 0 0 0 0 0 0 0.08 0"/>
<feBlend mode="normal" in2="BackgroundImageFix" result="effect1_dropShadow_75_652"/>
<feBlend mode="normal" in="SourceGraphic" in2="effect1_dropShadow_75_652" result="shape"/>
</filter>
<filter id="filter1_f_75_652" x="-27" y="-15.0098" width="90" height="110" filterUnits="userSpaceOnUse" color-interpolation-filters="sRGB">
<feFlood flood-opacity="0" result="BackgroundImageFix"/>
<feBlend mode="normal" in="SourceGraphic" in2="BackgroundImageFix" result="shape"/>
<feGaussianBlur stdDeviation="7.5" result="effect1_foregroundBlur_75_652"/>
</filter>
<filter id="filter2_f_75_652" x="1377" y="-15.0098" width="90" height="110" filterUnits="userSpaceOnUse" color-interpolation-filters="sRGB">
<feFlood flood-opacity="0" result="BackgroundImageFix"/>
<feBlend mode="normal" in="SourceGraphic" in2="BackgroundImageFix" result="shape"/>
<feGaussianBlur stdDeviation="7.5" result="effect1_foregroundBlur_75_652"/>
</filter>
<clipPath id="clip0_75_652">
<rect width="1440" height="88" fill="white"/>
</clipPath>
<clipPath id="clip1_75_652">
<rect width="164.384" height="40" fill="white" transform="translate(-17.3153 24)"/>
</clipPath>
<clipPath id="clip2_75_652">
<rect width="106.312" height="32" fill="white" transform="translate(227.068 28)"/>
</clipPath>
<clipPath id="clip3_75_652">
<rect width="150" height="36" fill="white" transform="translate(413.381 26)"/>
</clipPath>
<clipPath id="clip4_75_652">
<rect width="80" height="32" fill="white" transform="translate(643.381 28)"/>
</clipPath>
<clipPath id="clip5_75_652">
<rect width="32.5333" height="40" fill="white" transform="translate(803.381 24)"/>
</clipPath>
<clipPath id="clip6_75_652">
<rect width="182.609" height="28" fill="white" transform="translate(915.914 30)"/>
</clipPath>
<clipPath id="clip7_75_652">
<rect width="114.286" height="40" fill="white" transform="translate(1178.52 24)"/>
</clipPath>
<clipPath id="clip8_75_652">
<rect width="84.507" height="40" fill="white" transform="translate(1372.81 24)"/>
</clipPath>
</defs>
</svg>
