<svg width="17" height="17" viewBox="0 0 17 17" fill="none" xmlns="http://www.w3.org/2000/svg">
<path d="M16.2915 0H0.708325C0.317128 0 0 0.317128 0 0.708325V16.2915C0 16.6827 0.317128 16.9998 0.708325 16.9998H9.08012V10.4166H6.86473V7.85098H9.08012V5.95892C9.08012 3.76319 10.4212 2.56758 12.3799 2.56758C13.3182 2.56758 14.1246 2.63743 14.3596 2.66866V4.96332L13.0011 4.96393C11.9358 4.96393 11.7295 5.47013 11.7295 6.21295V7.85098H14.2701L13.9393 10.4166H11.7295V16.9998H16.2915C16.6827 16.9998 16.9998 16.6827 16.9998 16.2915V0.708325C16.9998 0.317128 16.6827 0 16.2915 0Z" fill="#7D818D"/>
</svg>
