<svg width="17" height="17" viewBox="0 0 17 17" fill="none" xmlns="http://www.w3.org/2000/svg">
<path fill-rule="evenodd" clip-rule="evenodd" d="M0.708325 0H16.2915C16.681 0 16.9998 0.318746 16.9998 0.708325V16.2915C16.9998 16.681 16.681 16.9998 16.2915 16.9998H0.708325C0.318746 16.9998 0 16.681 0 16.2915V0.708325C0 0.318746 0.318746 0 0.708325 0ZM2.51454 14.4852H5.0291V6.37492H2.51454V14.4852ZM3.78953 5.27697C2.97495 5.27697 2.33746 4.63948 2.33746 3.82491C2.33746 3.01033 2.97495 2.37284 3.78953 2.37284C4.6041 2.37284 5.24159 3.01033 5.24159 3.82491C5.24159 4.60406 4.6041 5.27697 3.78953 5.27697ZM11.9705 14.4853H14.4497V10.0228C14.4497 7.82701 13.9893 6.16245 11.4393 6.16245C10.2351 6.16245 9.38515 6.83536 9.06641 7.47285H9.03099V6.37495H6.62269V14.4853H9.13724V10.4832C9.13724 9.42074 9.34974 8.39367 10.6601 8.39367C11.9705 8.39367 11.9705 9.59782 11.9705 10.5541V14.4853Z" fill="#7D818D"/>
</svg>
