<svg width="38" height="38" viewBox="0 0 38 38" fill="none" xmlns="http://www.w3.org/2000/svg">
<path d="M12.6667 14.25H25.3333M12.6667 20.5834H22.1667M19 33.25L14.25 28.5H9.5C8.24022 28.5 7.03204 27.9996 6.14124 27.1088C5.25045 26.218 4.75 25.0098 4.75 23.75V11.0834C4.75 9.8236 5.25045 8.61541 6.14124 7.72462C7.03204 6.83382 8.24022 6.33337 9.5 6.33337H28.5C29.7598 6.33337 30.968 6.83382 31.8588 7.72462C32.7496 8.61541 33.25 9.8236 33.25 11.0834V20.5834M25.3333 34.8334L33.25 26.9167M33.25 26.9167V34.0417M33.25 26.9167H26.125" stroke="#0896AF" stroke-width="4" stroke-linecap="round" stroke-linejoin="round"/>
</svg>
