<svg width="17" height="17" viewBox="0 0 17 17" fill="none" xmlns="http://www.w3.org/2000/svg">
<path fill-rule="evenodd" clip-rule="evenodd" d="M4.99546 0.0509994C5.90212 0.00991655 6.19147 0 8.4999 0C10.8083 0 11.0977 0.00991655 12.0043 0.0509994C13.3863 0.11404 14.5993 0.45262 15.5732 1.42657C16.5475 2.40087 16.8858 3.61423 16.9488 4.99546C16.9899 5.90212 16.9998 6.19147 16.9998 8.4999C16.9998 10.8083 16.9899 11.0977 16.9488 12.0043C16.8858 13.3863 16.5472 14.5993 15.5732 15.5732C14.5989 16.5475 13.3852 16.8858 12.0043 16.9488C11.0977 16.9899 10.8083 16.9998 8.4999 16.9998C6.19147 16.9998 5.90212 16.9899 4.99546 16.9488C3.61352 16.8858 2.40051 16.5472 1.42657 15.5732C0.452265 14.5989 0.11404 13.3856 0.0509994 12.0043C0.00991655 11.0977 0 10.8083 0 8.4999C0 6.19147 0.00991655 5.90212 0.0509994 4.99546C0.11404 3.61352 0.45262 2.40051 1.42657 1.42657C2.40087 0.452265 3.61423 0.11404 4.99546 0.0509994ZM11.9346 1.58094C11.0382 1.53986 10.7694 1.53136 8.49992 1.53136C6.23045 1.53136 5.96164 1.54021 5.06526 1.58094C4.09804 1.62521 3.20024 1.81894 2.50962 2.50956C1.819 3.20017 1.62528 4.09798 1.58101 5.06519C1.53992 5.96158 1.53142 6.23039 1.53142 8.49986C1.53142 10.7693 1.54028 11.0381 1.58101 11.9345C1.62528 12.9017 1.819 13.7995 2.50962 14.4902C3.20024 15.1808 4.09804 15.3745 5.06526 15.4188C5.96129 15.4599 6.2301 15.4684 8.49992 15.4684C10.7698 15.4684 11.0386 15.4595 11.9346 15.4188C12.9018 15.3745 13.7996 15.1808 14.4902 14.4902C15.1808 13.7995 15.3746 12.9017 15.4188 11.9345C15.4599 11.0381 15.4684 10.7693 15.4684 8.49986C15.4684 6.23039 15.4596 5.96158 15.4188 5.06519C15.3746 4.09798 15.1808 3.20017 14.4902 2.50956C13.7996 1.81894 12.9018 1.62521 11.9346 1.58094Z" fill="#7D818D"/>
<path fill-rule="evenodd" clip-rule="evenodd" d="M4.63634 8.88603C4.63634 6.53897 6.53889 4.63608 8.88629 4.63608C11.2337 4.63608 13.1362 6.53863 13.1362 8.88603C13.1362 11.2334 11.2337 13.136 8.88629 13.136C6.53889 13.136 4.63634 11.2331 4.63634 8.88603ZM6.12747 8.88596C6.12747 10.4095 7.36272 11.6448 8.88628 11.6448C10.4098 11.6448 11.6451 10.4095 11.6451 8.88596C11.6451 7.3624 10.4098 6.12715 8.88628 6.12715C7.36272 6.12715 6.12747 7.3624 6.12747 8.88596Z" fill="#7D818D"/>
<circle cx="12.7498" cy="4.2498" r="1.15908" fill="#7D818D"/>
</svg>
